<?xml version="1.0" encoding="iso-8859-1"?>
<!-- Generator: Adobe Illustrator 18.1.1, SVG Export Plug-In . SVG Version: 6.00 Build 0)  -->
<svg version="1.1" id="Capa_1" xmlns="http://www.w3.org/2000/svg" xmlns:xlink="http://www.w3.org/1999/xlink" x="0px" y="0px"
	 viewBox="0 0 25.625 25.625" style="enable-background:new 0 0 25.625 25.625;" xml:space="preserve">
<g>
	<g>
		<path style="fill:#030104;" d="M12.812,2c5.962,0,10.813,4.851,10.813,10.813s-4.851,10.812-10.813,10.812S2,18.774,2,12.812
			S6.85,2,12.812,2 M12.812,0C5.736,0,0,5.736,0,12.812s5.736,12.813,12.812,12.813s12.813-5.737,12.813-12.813S19.888,0,12.812,0
			L12.812,0z"/>
	</g>
	<g>
		<g>
			<path style="fill:#030104;" d="M22.71,12.139c0.021,0.756-0.383,1.572-1.273,1.572c-0.889,0-1.484-0.634-1.484-1.634
				c0-1.926-0.078-2.391-0.078-2.391S22.663,10.485,22.71,12.139z"/>
		</g>
	</g>
	<g>
		<g>
			<path style="fill:#030104;" d="M3.914,13.139c-0.021,0.756,0.383,1.572,1.273,1.572c0.889,0,1.484-0.634,1.484-1.634
				c0-1.926,0.078-2.391,0.078-2.391S3.961,11.485,3.914,13.139z"/>
		</g>
	</g>
	<path style="fill:#030104;" d="M19.812,8.812c0,0.625-1.896,0-3,0s-2,0.703-2,0s0.896-2,2-2S19.812,8.187,19.812,8.812z"/>
	<path style="fill:#030104;" d="M5.812,8.812c0,0.625,1.896,0,3,0s2,0.703,2,0s-0.896-2-2-2S5.812,8.187,5.812,8.812z"/>
	<path style="fill:#030104;" d="M6.896,18.786c0-2.774,1.991-5.884,5.916-5.884s5.916,3.109,5.916,5.884
		c0,0-1.903-0.996-5.916-0.996S6.896,18.786,6.896,18.786z"/>
</g>
<g>
</g>
<g>
</g>
<g>
</g>
<g>
</g>
<g>
</g>
<g>
</g>
<g>
</g>
<g>
</g>
<g>
</g>
<g>
</g>
<g>
</g>
<g>
</g>
<g>
</g>
<g>
</g>
<g>
</g>
</svg>
